<mxfile host="app.diagrams.net" modified="2024-03-13T19:05:26.528Z" agent="Mozilla/5.0 (Macintosh; Intel Mac OS X 10_15_7) AppleWebKit/537.36 (KHTML, like Gecko) Chrome/122.0.0.0 Safari/537.36" etag="oHQXwmuDIeNn-u-KG8G6" version="23.1.4" type="google">
  <diagram name="Page-1" id="hGl6-yu-bIhh6hzXzWU5">
    <mxGraphModel grid="1" page="1" gridSize="10" guides="1" tooltips="1" connect="1" arrows="1" fold="1" pageScale="1" pageWidth="850" pageHeight="1100" math="0" shadow="0">
      <root>
        <mxCell id="0" />
        <mxCell id="1" parent="0" />
        <mxCell id="jcethup4zuZOfwS8kyeW-5" value="" style="rounded=1;whiteSpace=wrap;html=1;fillColor=#fff2cc;strokeColor=#d6b656;" vertex="1" parent="1">
          <mxGeometry x="70" y="160.63" width="350" height="161.25" as="geometry" />
        </mxCell>
        <mxCell id="jcethup4zuZOfwS8kyeW-26" value="ReductStore Bucket" style="text;html=1;align=left;verticalAlign=middle;resizable=0;points=[];autosize=1;strokeColor=none;fillColor=none;fontStyle=1" vertex="1" parent="1">
          <mxGeometry x="87.5" y="133.63" width="140" height="30" as="geometry" />
        </mxCell>
        <mxCell id="jcethup4zuZOfwS8kyeW-28" value="" style="group;strokeColor=default;container=0;" connectable="0" vertex="1" parent="1">
          <mxGeometry x="87.5" y="192" width="315" height="96.88" as="geometry" />
        </mxCell>
        <mxCell id="jcethup4zuZOfwS8kyeW-29" value="&lt;p data-pm-slice=&quot;1 1 []&quot; style=&quot;font-size: 12px;&quot;&gt;/image_raw&lt;/p&gt;" style="text;html=1;align=center;verticalAlign=middle;resizable=0;points=[];autosize=1;strokeColor=none;fillColor=none;fontSize=12;" vertex="1" parent="1">
          <mxGeometry x="560" y="206.25" width="90" height="50" as="geometry" />
        </mxCell>
        <mxCell id="jcethup4zuZOfwS8kyeW-30" value="&lt;p data-pm-slice=&quot;1 1 []&quot;&gt;Image Entry&lt;/p&gt;" style="text;whiteSpace=wrap;html=1;align=left;" vertex="1" parent="1">
          <mxGeometry x="87.5" y="155" width="170" height="40" as="geometry" />
        </mxCell>
        <mxCell id="jcethup4zuZOfwS8kyeW-46" style="edgeStyle=orthogonalEdgeStyle;rounded=0;orthogonalLoop=1;jettySize=auto;html=1;entryX=1;entryY=0.5;entryDx=0;entryDy=0;" edge="1" parent="1" source="jcethup4zuZOfwS8kyeW-33" target="jcethup4zuZOfwS8kyeW-45">
          <mxGeometry relative="1" as="geometry" />
        </mxCell>
        <mxCell id="jcethup4zuZOfwS8kyeW-33" value="" style="sketch=0;pointerEvents=1;shadow=0;dashed=0;html=1;strokeColor=none;fillColor=#505050;labelPosition=center;verticalLabelPosition=bottom;verticalAlign=top;outlineConnect=0;align=center;shape=mxgraph.office.devices.video_camera;" vertex="1" parent="1">
          <mxGeometry x="650" y="228.76" width="52" height="25" as="geometry" />
        </mxCell>
        <mxCell id="jcethup4zuZOfwS8kyeW-12" value="t1" style="text;html=1;align=center;verticalAlign=middle;resizable=0;points=[];autosize=1;strokeColor=none;fillColor=none;" vertex="1" parent="1">
          <mxGeometry x="352.5" y="259.38" width="30" height="30" as="geometry" />
        </mxCell>
        <mxCell id="jcethup4zuZOfwS8kyeW-15" value="t2" style="text;html=1;align=center;verticalAlign=middle;resizable=0;points=[];autosize=1;strokeColor=none;fillColor=none;" vertex="1" parent="1">
          <mxGeometry x="283" y="259.38" width="30" height="30" as="geometry" />
        </mxCell>
        <mxCell id="jcethup4zuZOfwS8kyeW-18" value="t3" style="text;html=1;align=center;verticalAlign=middle;resizable=0;points=[];autosize=1;strokeColor=none;fillColor=none;" vertex="1" parent="1">
          <mxGeometry x="214" y="259.38" width="30" height="30" as="geometry" />
        </mxCell>
        <mxCell id="jcethup4zuZOfwS8kyeW-21" value="t4" style="text;html=1;align=center;verticalAlign=middle;resizable=0;points=[];autosize=1;strokeColor=none;fillColor=none;" vertex="1" parent="1">
          <mxGeometry x="144.95" y="259.38" width="30" height="30" as="geometry" />
        </mxCell>
        <mxCell id="jcethup4zuZOfwS8kyeW-22" value="..." style="text;html=1;align=center;verticalAlign=middle;resizable=0;points=[];autosize=1;strokeColor=none;fillColor=none;" vertex="1" parent="1">
          <mxGeometry x="100" y="226.88" width="30" height="30" as="geometry" />
        </mxCell>
        <mxCell id="jcethup4zuZOfwS8kyeW-38" value="" style="image;aspect=fixed;html=1;points=[];align=center;fontSize=12;image=img/lib/azure2/other/Defender_Industrial_Robot.svg;" vertex="1" parent="1">
          <mxGeometry x="740" y="206.25" width="71.36" height="95" as="geometry" />
        </mxCell>
        <mxCell id="jcethup4zuZOfwS8kyeW-39" value="" style="image;aspect=fixed;html=1;points=[];align=center;fontSize=12;image=img/lib/azure2/other/Defender_Industrial_Robot.svg;imageBorder=default;" vertex="1" parent="1">
          <mxGeometry x="352.5" y="221.88" width="30.05" height="40" as="geometry" />
        </mxCell>
        <mxCell id="jcethup4zuZOfwS8kyeW-40" value="" style="image;aspect=fixed;html=1;points=[];align=center;fontSize=12;image=img/lib/azure2/other/Defender_Industrial_Robot.svg;imageBorder=default;" vertex="1" parent="1">
          <mxGeometry x="283" y="221.88" width="30.05" height="40" as="geometry" />
        </mxCell>
        <mxCell id="jcethup4zuZOfwS8kyeW-41" value="" style="image;aspect=fixed;html=1;points=[];align=center;fontSize=12;image=img/lib/azure2/other/Defender_Industrial_Robot.svg;imageBorder=default;" vertex="1" parent="1">
          <mxGeometry x="214" y="221.88" width="30.05" height="40" as="geometry" />
        </mxCell>
        <mxCell id="jcethup4zuZOfwS8kyeW-42" value="" style="image;aspect=fixed;html=1;points=[];align=center;fontSize=12;image=img/lib/azure2/other/Defender_Industrial_Robot.svg;imageBorder=default;" vertex="1" parent="1">
          <mxGeometry x="144.89999999999998" y="221.88" width="30.05" height="40" as="geometry" />
        </mxCell>
        <mxCell id="jcethup4zuZOfwS8kyeW-47" style="edgeStyle=orthogonalEdgeStyle;rounded=0;orthogonalLoop=1;jettySize=auto;html=1;entryX=1;entryY=0.5;entryDx=0;entryDy=0;" edge="1" parent="1" source="jcethup4zuZOfwS8kyeW-45" target="jcethup4zuZOfwS8kyeW-5">
          <mxGeometry relative="1" as="geometry" />
        </mxCell>
        <mxCell id="jcethup4zuZOfwS8kyeW-45" value="ROS 2&lt;br&gt;Node" style="rounded=1;whiteSpace=wrap;html=1;" vertex="1" parent="1">
          <mxGeometry x="470" y="211.26" width="70" height="60" as="geometry" />
        </mxCell>
        <mxCell id="jcethup4zuZOfwS8kyeW-53" value="Metadata" style="text;html=1;align=center;verticalAlign=top;resizable=0;points=[];autosize=1;strokeColor=none;fillColor=none;fontSize=10;" vertex="1" parent="1">
          <mxGeometry x="124.95" y="199.88" width="70" height="30" as="geometry" />
        </mxCell>
        <mxCell id="jcethup4zuZOfwS8kyeW-54" value="Metadata" style="text;html=1;align=center;verticalAlign=top;resizable=0;points=[];autosize=1;strokeColor=none;fillColor=none;fontSize=10;" vertex="1" parent="1">
          <mxGeometry x="194" y="199.88" width="70" height="30" as="geometry" />
        </mxCell>
        <mxCell id="jcethup4zuZOfwS8kyeW-55" value="Metadata" style="text;html=1;align=center;verticalAlign=top;resizable=0;points=[];autosize=1;strokeColor=none;fillColor=none;fontSize=10;" vertex="1" parent="1">
          <mxGeometry x="263" y="199.88" width="70" height="30" as="geometry" />
        </mxCell>
        <mxCell id="jcethup4zuZOfwS8kyeW-56" value="Metadata" style="text;html=1;align=center;verticalAlign=top;resizable=0;points=[];autosize=1;strokeColor=none;fillColor=none;fontSize=10;" vertex="1" parent="1">
          <mxGeometry x="332.5" y="199.88" width="70" height="30" as="geometry" />
        </mxCell>
      </root>
    </mxGraphModel>
  </diagram>
</mxfile>
